<svg xmlns="http://www.w3.org/2000/svg" width="154.65" height="154.566" viewBox="0 0 154.65 154.566">
  <g id="Group_456" data-name="Group 456" transform="translate(-294.215 -302.48)">
    <g id="Group_455" data-name="Group 455" transform="translate(-27.546 -9)">
      <path id="Path_141" data-name="Path 141" d="M473.054,405.133s-63-29.252-145.187-2.058l9.514,18.977S396.324,389.773,473.054,405.133Z" transform="translate(3.357 43.994)" fill="#2d6a4f"/>
      <circle id="Ellipse_47" data-name="Ellipse 47" cx="12.577" cy="12.577" r="12.577" transform="translate(376.274 412.449)" fill="#e7b844"/>
      <circle id="Ellipse_48" data-name="Ellipse 48" cx="12.577" cy="12.577" r="12.577" transform="translate(422.407 412.449)" fill="#e7b844"/>
      <g id="Group_454" data-name="Group 454" transform="translate(321.761 311.48)">
        <path id="Path_143" data-name="Path 143" d="M408.839,408.888H364.763L351.5,351.568a30.391,30.391,0,0,0-29.74-23.642V311.48a46.766,46.766,0,0,1,45.764,36.38l10.315,44.583h31a38.876,38.876,0,0,0,38.876-38.876V336.559H434.779a16.447,16.447,0,0,1-16.446-16.448h45.83v33.454A55.324,55.324,0,0,1,408.839,408.888Z" transform="translate(-321.761 -311.48)" fill="#2d6a4f"/>
      </g>
    </g>
  </g>
</svg>
